<svg width="465" height="170" viewBox="0 0 465 170" fill="none" xmlns="http://www.w3.org/2000/svg">
<circle cx="228.598" cy="108.289" r="52.5983" fill="#E63946"/>
<circle cx="280.686" cy="27.7337" r="27.7337" fill="#E63946"/>
<circle cx="337.699" cy="18.1166" r="15.3013" fill="#E63946"/>
<path d="M6.15 55.4469H22.65V160.447H6.15V55.4469ZM35.0074 55.4469H58.5574L69.0574 130.597H69.3574L79.8574 55.4469H103.407V160.447H87.8074V80.9469H87.5074L75.5074 160.447H61.7074L49.7074 80.9469H49.4074V160.447H35.0074V55.4469ZM115.72 55.4469H140.02C148.22 55.4469 154.37 57.6469 158.47 62.0469C162.57 66.4469 164.62 72.8969 164.62 81.3969V91.7469C164.62 100.247 162.57 106.697 158.47 111.097C154.37 115.497 148.22 117.697 140.02 117.697H132.22V160.447H115.72V55.4469ZM140.02 102.697C142.72 102.697 144.72 101.947 146.02 100.447C147.42 98.9469 148.12 96.3969 148.12 92.7969V80.3469C148.12 76.7469 147.42 74.1969 146.02 72.6969C144.72 71.1969 142.72 70.4469 140.02 70.4469H132.22V102.697H140.02Z" fill="#2D3142"/>
<path d="M315.6 161.947C307.6 161.947 301.55 159.697 297.45 155.197C293.35 150.597 291.3 144.047 291.3 135.547V129.547H306.9V136.747C306.9 143.547 309.75 146.947 315.45 146.947C318.25 146.947 320.35 146.147 321.75 144.547C323.25 142.847 324 140.147 324 136.447C324 132.047 323 128.197 321 124.897C319 121.497 315.3 117.447 309.9 112.747C303.1 106.747 298.35 101.347 295.65 96.5469C292.95 91.6469 291.6 86.1469 291.6 80.0469C291.6 71.7469 293.7 65.3469 297.9 60.8469C302.1 56.2469 308.2 53.9469 316.2 53.9469C324.1 53.9469 330.05 56.2469 334.05 60.8469C338.15 65.3469 340.2 71.8469 340.2 80.3469V84.6969H324.6V79.2969C324.6 75.6969 323.9 73.0969 322.5 71.4969C321.1 69.7969 319.05 68.9469 316.35 68.9469C310.85 68.9469 308.1 72.2969 308.1 78.9969C308.1 82.7969 309.1 86.3469 311.1 89.6469C313.2 92.9469 316.95 96.9469 322.35 101.647C329.25 107.647 334 113.097 336.6 117.997C339.2 122.897 340.5 128.647 340.5 135.247C340.5 143.847 338.35 150.447 334.05 155.047C329.85 159.647 323.7 161.947 315.6 161.947ZM362.861 70.4469H345.611V55.4469H396.611V70.4469H379.361V160.447H362.861V70.4469ZM404.599 55.4469H429.049C437.549 55.4469 443.749 57.4469 447.649 61.4469C451.549 65.3469 453.499 71.3969 453.499 79.5969V86.0469C453.499 96.9469 449.899 103.847 442.699 106.747V107.047C446.699 108.247 449.499 110.697 451.099 114.397C452.799 118.097 453.649 123.047 453.649 129.247V147.697C453.649 150.697 453.749 153.147 453.949 155.047C454.149 156.847 454.649 158.647 455.449 160.447H438.649C438.049 158.747 437.649 157.147 437.449 155.647C437.249 154.147 437.149 151.447 437.149 147.547V128.347C437.149 123.547 436.349 120.197 434.749 118.297C433.249 116.397 430.599 115.447 426.799 115.447H421.099V160.447H404.599V55.4469ZM427.099 100.447C430.399 100.447 432.849 99.5969 434.449 97.8969C436.149 96.1969 436.999 93.3469 436.999 89.3469V81.2469C436.999 77.4469 436.299 74.6969 434.899 72.9969C433.599 71.2969 431.499 70.4469 428.599 70.4469H421.099V100.447H427.099Z" fill="#2D3142"/>
</svg>
