<svg width="465" height="170" viewBox="0 0 465 170" fill="none" xmlns="http://www.w3.org/2000/svg">
<circle cx="228.598" cy="108.842" r="52.5983" fill="#64BBEB"/>
<circle cx="280.686" cy="28.2868" r="27.7337" fill="#64BBEB"/>
<circle cx="337.699" cy="18.6697" r="15.3013" fill="#64BBEB"/>
<path d="M6.15 56H22.65V161H6.15V56ZM35.0074 56H58.5574L69.0574 131.15H69.3574L79.8574 56H103.407V161H87.8074V81.5H87.5074L75.5074 161H61.7074L49.7074 81.5H49.4074V161H35.0074V56ZM115.72 56H140.02C148.22 56 154.37 58.2 158.47 62.6C162.57 67 164.62 73.45 164.62 81.95V92.3C164.62 100.8 162.57 107.25 158.47 111.65C154.37 116.05 148.22 118.25 140.02 118.25H132.22V161H115.72V56ZM140.02 103.25C142.72 103.25 144.72 102.5 146.02 101C147.42 99.5 148.12 96.95 148.12 93.35V80.9C148.12 77.3 147.42 74.75 146.02 73.25C144.72 71.75 142.72 71 140.02 71H132.22V103.25H140.02Z" fill="#CDF72B"/>
<path d="M315.6 162.5C307.6 162.5 301.55 160.25 297.45 155.75C293.35 151.15 291.3 144.6 291.3 136.1V130.1H306.9V137.3C306.9 144.1 309.75 147.5 315.45 147.5C318.25 147.5 320.35 146.7 321.75 145.1C323.25 143.4 324 140.7 324 137C324 132.6 323 128.75 321 125.45C319 122.05 315.3 118 309.9 113.3C303.1 107.3 298.35 101.9 295.65 97.1C292.95 92.2 291.6 86.7 291.6 80.6C291.6 72.3 293.7 65.9 297.9 61.4C302.1 56.8 308.2 54.5 316.2 54.5C324.1 54.5 330.05 56.8 334.05 61.4C338.15 65.9 340.2 72.4 340.2 80.9V85.25H324.6V79.85C324.6 76.25 323.9 73.65 322.5 72.05C321.1 70.35 319.05 69.5 316.35 69.5C310.85 69.5 308.1 72.85 308.1 79.55C308.1 83.35 309.1 86.9 311.1 90.2C313.2 93.5 316.95 97.5 322.35 102.2C329.25 108.2 334 113.65 336.6 118.55C339.2 123.45 340.5 129.2 340.5 135.8C340.5 144.4 338.35 151 334.05 155.6C329.85 160.2 323.7 162.5 315.6 162.5ZM362.861 71H345.611V56H396.611V71H379.361V161H362.861V71ZM404.599 56H429.049C437.549 56 443.749 58 447.649 62C451.549 65.9 453.499 71.95 453.499 80.15V86.6C453.499 97.5 449.899 104.4 442.699 107.3V107.6C446.699 108.8 449.499 111.25 451.099 114.95C452.799 118.65 453.649 123.6 453.649 129.8V148.25C453.649 151.25 453.749 153.7 453.949 155.6C454.149 157.4 454.649 159.2 455.449 161H438.649C438.049 159.3 437.649 157.7 437.449 156.2C437.249 154.7 437.149 152 437.149 148.1V128.9C437.149 124.1 436.349 120.75 434.749 118.85C433.249 116.95 430.599 116 426.799 116H421.099V161H404.599V56ZM427.099 101C430.399 101 432.849 100.15 434.449 98.45C436.149 96.75 436.999 93.9 436.999 89.9V81.8C436.999 78 436.299 75.25 434.899 73.55C433.599 71.85 431.499 71 428.599 71H421.099V101H427.099Z" fill="#CDF72B"/>
</svg>
